<?xml version="1.0" encoding="utf-8"?>
<!-- Generator: Adobe Illustrator 22.0.1, SVG Export Plug-In . SVG Version: 6.00 Build 0)  -->
<svg version="1.1" id="圖層_1" xmlns="http://www.w3.org/2000/svg" xmlns:xlink="http://www.w3.org/1999/xlink" x="0px" y="0px"
	 viewBox="0 0 650 650" style="enable-background:new 0 0 650 650;" xml:space="preserve">
<style type="text/css">
	.st0{fill:#0D3082;}
	.st1{fill:#A0E3F2;}
	.st2{fill:#6EB748;}
	.st3{fill:#756759;}
	.st4{fill:#ECECEC;}
	.st5{fill:#707070;}
	.st6{fill:#F93716;}
	.st7{fill:#FFFFFF;}
	.st8{fill:none;stroke:#707070;stroke-miterlimit:10;}
</style>
<g>
	<path class="st0" d="M475,35c-40.7-21.2-84-33-129.8-35.7C186.4-10.1,45.5,95.2,9.5,250.3c-4.5,19.3-7.1,38.8-7.8,58.6
		c-0.1,1.6-0.5,3.2-0.8,4.8c0,6.3,0,12.5,0,18.8c0.6,6.5,1.2,13,1.8,19.5c6.9,74,35.6,138.4,86.3,192.7
		c45.5,48.8,101.1,80.6,166.3,94.8c18.7,4.1,38.1,5.1,57.1,7.5c1.2,0.2,2.5,0.5,3.7,0.8c6.3,0,12.5,0,18.8,0
		c6.8-0.6,13.7-1.3,20.5-1.9c72.6-6.8,136-34.8,189.6-84.1c55.1-50.6,88.9-113.2,100.9-187.1C668.2,236.1,599.4,99.6,475,35z
		 M322.1,608.1C165.7,606.3,38.2,478.3,40.4,318.9C42.5,161.6,171.1,37.4,325.6,37.7c157.5-0.4,287,129,285.2,288.7
		C609.1,480.5,482.9,609.9,322.1,608.1z"/>
	<path class="st0" d="M517.6,149.6c-43.8,19.3-87.5,38.6-131.2,58.2c-5.6,2.5-10.3,2.5-15.8-0.3c-38.5-19.6-77.2-39-115.8-58.5
		c-5.8-2.9-11.7-4.5-18.1-2.3c-39,13.5-78,26.9-116.9,40.4c-7.1,2.5-9.1,5.5-9.1,12.9c0,86.3-0.1,172.6,0,258.9
		c0,11,6.4,15.9,17.1,13.5c1.4-0.3,2.8-0.9,4.2-1.4c34.9-11.8,69.7-23.6,104.6-35.5c4.6-1.6,8.7-1.8,13.2,0.5
		c31.6,16.2,63.3,32.2,95,48.3c8.5,4.3,16.7,9.1,25,13.8c3.9,2.3,7.7,2.3,11.8,0.6c20.5-8.5,41-16.9,61.6-25.3
		c29.1-11.8,58.2-23.6,87.3-35.4c6.9-2.8,10.4-7.2,10.4-15.3c-0.3-43.6-0.2-87.3-0.2-130.9c0-44.3,0-88.6,0-132.9
		c0-8.1-5.6-13.3-13.6-12.3C523.8,147,520.6,148.3,517.6,149.6z M363.4,458.4c0,1.9-0.4,3.8-0.7,6.6c-14.4-7.3-27.9-14.2-41.3-21
		c-19.9-10.1-39.8-20.3-59.8-30.3c-4.2-2.1-5.9-5-5.9-9.7c0.2-73.3,0.2-146.5,0.3-219.8c0-1.5,0.1-2.9,0.2-5.1
		c2,0.8,3.7,1.4,5.2,2.2c32.1,15.9,64.1,32,96.3,47.8c4.1,2,5.8,4.6,5.8,9.2C363.4,311.5,363.4,384.9,363.4,458.4z"/>
</g>
</svg>
