<?xml version="1.0" encoding="utf-8"?>
<!-- Generator: Adobe Illustrator 22.0.1, SVG Export Plug-In . SVG Version: 6.00 Build 0)  -->
<svg version="1.1" id="圖層_1" xmlns="http://www.w3.org/2000/svg" xmlns:xlink="http://www.w3.org/1999/xlink" x="0px" y="0px"
	 viewBox="0 0 650 650" style="enable-background:new 0 0 650 650;" xml:space="preserve">
<style type="text/css">
	.st0{fill:#0D3082;}
	.st1{fill:#A0E3F2;}
	.st2{fill:#6EB748;}
	.st3{fill:#756759;}
	.st4{fill:#ECECEC;}
	.st5{fill:#707070;}
	.st6{fill:#FFFFFF;}
	.st7{fill:#F93716;}
	.st8{fill:none;stroke:#707070;stroke-miterlimit:10;}
</style>
<g>
	<path class="st1" d="M311.2,652.5c-6.1,0-12.3,0-18.4,0c-3-0.4-5.9-1.3-8.9-1.3c-42.5-0.1-84.9,0.1-127.4-0.1
		c-10.2,0-20.4-0.7-30.6-1.8C46.7,640.5,4.5,568.9,5.2,514.8c1.3-92.8,0.4-185.7,0.4-278.5c0-17.1,0-34.1,0-51.8
		c16,0,30.7-0.1,45.5,0c16.3,0.2,20.4,4.4,20.5,20.6c0,27.4-0.1,54.7,0.1,82.1c0,6.9,0.4,13.8,1.7,20.6
		c7.8,40.9,48.7,64.4,86.5,50.1c24.1-9.1,41-34.6,41.1-62.9c0.2-42.2-0.1-84.4,0.2-126.6c0.1-7.8,1.1-15.8,2.9-23.5
		c4.1-17.2,18.9-26.8,37-24.9c16.8,1.8,27.6,13.7,28.4,31.6c0.2,3.8,0.2,7.7,0.2,11.5c0,54.2-0.4,108.4,0,162.6
		c0.2,23,0.8,46,3,68.9c4.4,46.7,44.6,79.8,92.3,77.3c43.8-2.3,78.8-40.5,78.9-86.1c0-14.1,0.2-28.1,0.2-42.2
		c0-26.6-0.1-53.1,0.1-79.7c0.1-20.9,0.1-41.9,0.9-62.8c0.4-11.1,5.2-15.3,16.5-16.1c8.7-0.6,17.4-0.4,26.1-0.4
		c22.4,0,22.7,0.2,27.8,22.4c5.6,24.4,21.7,40.1,46.3,43.8c10.3,1.6,20.9,1.7,31.3,1.3c18.8-0.7,35.2-7.8,48.7-21.3
		c1.1-1.1,2.4-2,4.4-3.7c0,2.8,0,4.3,0,5.8c0,95.1,0,190.3,0,285.4c0,3.3-0.1,6.7-0.6,9.9c-9,70.7-64.5,121.4-135.9,122.4
		c-62.9,0.9-125.8,0.4-188.7,0.6C317.6,651.2,314.4,652,311.2,652.5z M185.1,486c0.2,0,0.4,0,0.5,0c0-8.4,0.3-16.9-0.1-25.3
		c-1-23.9-19.5-41.3-44.8-42.5c-24-1.1-43.9,14.8-46,38.7c-1.5,17.7-2,35.8-0.8,53.5c1.8,26.6,19.7,43.7,44.5,45
		c22.1,1.1,42.5-15.7,46.4-39.7C186.4,506.1,185.1,495.9,185.1,486z"/>
	<path class="st1" d="M7.4,130.5C17.5,93.4,37.7,63.1,68,39.7C98,16.6,131.8,4.6,170.3,4.8C284.9,5.2,399.4,4.9,514,5.2
		c14.2,0,28.7,1.1,42.6,3.8c23.6,4.6,41.9,19.2,56.3,37.4c11,13.8,19,30.1,27.7,45.6c2.3,4,3.1,9.3,3.2,14
		c0.4,16.6,0.1,33.1,0.1,50.1c-16.3,0.3-24.8,9.1-30.1,22.2c-5.4,13.4-16,19.3-30,19.7c-0.5,0-1,0-1.5,0
		c-24.8,0.5-20.6-1.4-25.1-18.7c-6.8-26-27.2-45-54.1-47.2c-19.7-1.5-40.1-1.8-59.4,1.5c-29.8,5.2-47.9,27.9-49.7,58.1
		c-1,16.5-0.5,33.2-0.5,49.8c-0.1,30.2,0.1,60.4,0,90.5c-0.1,16.4-0.3,32.7-0.7,49.1c-0.4,19.6-15.6,35.6-34.3,36.7
		c-20,1.1-38.6-13.4-40.8-32.7c-1.6-14.4-2.9-29-3-43.5c-0.3-65.2,0-130.4-0.2-195.6c-0.1-37.4-26.3-70.2-62.3-78.4
		c-45.6-10.4-92.1,20.4-98.9,67.3c-3,20.6-2.7,41.7-3.1,62.6c-0.5,30.7-0.1,61.3-0.4,92c-0.1,10.3-5.5,16.9-13.4,17.8
		c-8.7,1-16.2-4.8-18.5-14.8c-0.9-3.9-1.2-8.1-1.2-12.1c-0.1-26.6-0.8-53.2,0.1-79.8c1.1-34.1-16.8-67.7-67.3-69.8
		C35.7,130.1,21.9,130.5,7.4,130.5z"/>
</g>
</svg>
