<?xml version="1.0" encoding="utf-8"?>
<!-- Generator: Adobe Illustrator 22.0.1, SVG Export Plug-In . SVG Version: 6.00 Build 0)  -->
<svg version="1.1" id="圖層_1" xmlns="http://www.w3.org/2000/svg" xmlns:xlink="http://www.w3.org/1999/xlink" x="0px" y="0px"
	 viewBox="0 0 1000 1000" style="enable-background:new 0 0 1000 1000;" xml:space="preserve">
<style type="text/css">
	.st0{display:none;fill:#C7B299;}
	.st1{fill:#FFFFFF;}
	.st2{fill:#FF8044;}
	.st3{fill:none;}
	.st4{display:none;}
	.st5{display:inline;fill:#FFFFFF;}
	.st6{display:inline;fill:none;}
	.st7{display:inline;}
</style>
<g class="st4">
	<path class="st5" d="M958.6,305.6c-25-59.1-60.8-112.2-106.4-157.8c-45.6-45.6-98.7-81.4-157.8-106.4c-61.2-25.9-126.2-39-193.2-39
		s-132,13.1-193.2,39c-59.1,25-112.2,60.8-157.8,106.4c-45.6,45.6-81.4,98.7-106.4,157.8c-25.9,61.2-39,126.2-39,193.2
		s13.1,132,39,193.2c25,59.1,60.8,112.2,106.4,157.8c45.6,45.6,98.7,81.4,157.8,106.4c61.2,25.9,126.2,39,193.2,39
		s132-13.1,193.2-39c59.1-25,112.2-60.8,157.8-106.4c45.6-45.6,81.4-98.7,106.4-157.8c25.9-61.2,39-126.2,39-193.2
		S984.5,366.8,958.6,305.6z M32.8,498.8c0-258.3,210.1-468.4,468.4-468.4c60.4,0,118.2,11.5,171.3,32.4l-92.7,18.3
		c-5.9,1.2-10.4,6-11.2,11.9l-16.8,129c-0.1,0.6-0.1,1.2-0.1,1.8H250.6c-25.5,0-45.1,22.4-41.7,47.7L293,897.1
		c1.8,13.5,9.9,24.7,21,31C148.6,855.7,32.8,690.6,32.8,498.8z M718.5,255.9c22.2,0,39.2,19.6,36.1,41.5l-76.1,542.2
		c-0.4,2.8-1.1,5.4-2.1,7.9l-3,21.7c-2.5,17.6-17.5,30.6-35.2,30.6H360c-17.8,0-32.9-13.2-35.2-30.8l-71.1-528.7
		c-0.2-1.2-0.3-2.4-0.3-3.6l-5.3-39.5c-2.9-21.9,14.1-41.3,36.1-41.3H718.5z M501.2,967.2c-63.2,0-123.6-12.6-178.7-35.4
		c3.9,1.2,7.9,1.8,12.1,1.8h329.1c21,0,38.7-15.5,41.7-36.2l87.8-625.4c3.6-25.3-16.1-47.9-41.7-47.9H579.8l15.3-117.2l103.7-20.5
		c4.4-0.9,7.8-3.7,9.7-7.3c154.5,76.6,261,236,261,419.9C969.6,757.1,759.5,967.2,501.2,967.2z"/>
	
		<rect x="276.4" y="376.7" transform="matrix(0.7071 -0.7071 0.7071 0.7071 -203.1625 348.6769)" class="st5" width="85.8" height="85.8"/>
	
		<rect x="397.8" y="376.7" transform="matrix(0.7071 -0.7071 0.7071 0.7071 -167.6004 434.5314)" class="st5" width="85.8" height="85.8"/>
	
		<rect x="519.3" y="376.7" transform="matrix(0.7071 -0.7071 0.7071 0.7071 -132.0383 520.3859)" class="st5" width="85.8" height="85.8"/>
	
		<rect x="639.6" y="376.7" transform="matrix(0.7071 -0.7071 0.7071 0.7071 -96.8025 605.4526)" class="st5" width="85.8" height="85.8"/>
</g>
<g class="st4">
	<path class="st6" d="M289.6,899l-55-409.2l-8.7-64.6l-20.8-154.6c-3.4-25.4,16.3-47.9,41.9-47.9h302.5c0-0.6,0-1.2,0.1-1.8
		l16.9-129.6c0.8-6,5.3-10.8,11.2-12l93.1-18.4c-53.3-21-111.4-32.6-172.1-32.6c-259.5,0-470.6,211.1-470.6,470.6
		c0,192.7,116.4,358.6,282.5,431.4C299.5,923.8,291.4,912.5,289.6,899z"/>
	<path class="st6" d="M357,901.8h279.6c17.8,0,32.9-13.1,35.4-30.8l3.1-21.8c1-2.5,1.7-5.2,2.1-7.9l48.7-346.8
		c-56.9-27.9-121.2-54.9-149.5-54.9c-0.3,0-0.5,0-0.8,0c-20.6,0.4-57.1,21.9-89.2,40.8c-37.4,22-72.7,42.8-104,46.4
		c-23.7,2.7-59.9-4.8-109.9-22.7l49.3,366.7C323.9,888.6,339.1,901.8,357,901.8z"/>
	<path class="st6" d="M707.2,76.9c-1.9,3.7-5.4,6.5-9.8,7.4l-104.2,20.6l-15.4,117.8h172.5c25.7,0,45.4,22.7,41.9,48.1L766.7,452
		l-8.3,59L704,899.2c-2.1,15-11.9,27.2-25.1,32.9c-5.2,2.2-10.8,3.5-16.8,3.5H331.5c-4.2,0-8.3-0.6-12.2-1.8
		c55.4,22.9,116,35.6,179.5,35.6c64,0,125-12.8,180.6-36c170.1-71,290-239,290-434.6C969.4,314.1,862.4,153.9,707.2,76.9z"/>
	<path class="st5" d="M958.4,304.6c-25.1-59.4-61.1-112.7-106.9-158.5C805.7,100.3,752.4,64.3,693,39.2C631.5,13.2,566.1,0,498.8,0
		S366.1,13.2,304.6,39.2c-59.4,25.1-112.7,61.1-158.5,106.9c-45.8,45.8-81.8,99.2-106.9,158.5C13.2,366.1,0,431.5,0,498.8
		S13.2,631.5,39.2,693c25.1,59.4,61.1,112.7,106.9,158.5c45.8,45.8,99.2,81.8,158.5,106.9c61.5,26,126.8,39.2,194.2,39.2
		s132.7-13.2,194.2-39.2c59.4-25.1,112.7-61.1,158.5-106.9c45.8-45.8,81.8-99.2,106.9-158.5c26-61.5,39.2-126.8,39.2-194.2
		S984.4,366.1,958.4,304.6z M28.2,498.8c0-259.5,211.1-470.6,470.6-470.6c60.7,0,118.8,11.6,172.1,32.6l-93.1,18.4
		c-5.9,1.2-10.5,6-11.2,12l-16.9,129.6c-0.1,0.6-0.1,1.2-0.1,1.8H247c-25.6,0-45.3,22.5-41.9,47.9l20.8,154.6l8.7,64.6l55,409.2
		c1.8,13.5,9.9,24.9,21.1,31.2C144.6,857.4,28.2,691.5,28.2,498.8z M382.2,526.8c31.4-3.5,66.7-24.3,104-46.4
		c32.1-19,68.6-40.4,89.2-40.8c0.3,0,0.5,0,0.8,0c28.3,0,92.5,27,149.5,54.9L677,841.3c-0.4,2.8-1.1,5.4-2.1,7.9l-3.1,21.8
		c-2.5,17.6-17.6,30.8-35.4,30.8H357c-17.9,0-33-13.2-35.4-31l-49.3-366.7C322.3,522,358.5,529.5,382.2,526.8z M679.4,933.4
		c-55.6,23.2-116.6,36-180.6,36c-63.5,0-124.2-12.7-179.5-35.6c3.9,1.2,8,1.8,12.2,1.8h330.7c5.9,0,11.6-1.2,16.8-3.5
		c13.2-5.7,23-17.9,25.1-32.9L758.5,511l8.3-59l25.4-181.3c3.6-25.4-16.2-48.1-41.9-48.1H577.8l15.4-117.8l104.2-20.6
		c4.4-0.9,7.9-3.7,9.8-7.4c155.3,77,262.3,237.2,262.3,421.9C969.4,694.4,849.6,862.4,679.4,933.4z"/>
</g>
<g>
	<path class="st1" d="M960.7,305.4c-25.2-59.5-61.2-113-107.1-158.9c-45.9-45.9-99.4-82-158.9-107.1C633,13.2,567.5,0,500,0
		S367,13.2,305.4,39.3c-59.5,25.2-113,61.2-158.9,107.1c-45.9,45.9-82,99.4-107.1,158.9C13.2,367,0,432.5,0,500s13.2,133,39.3,194.6
		c25.2,59.5,61.2,113,107.1,158.9c45.9,45.9,99.4,82,158.9,107.1C367,986.8,432.5,1000,500,1000s133-13.2,194.6-39.3
		c59.5-25.2,113-61.2,158.9-107.1c45.9-45.9,82-99.4,107.1-158.9C986.8,633,1000,567.5,1000,500S986.8,367,960.7,305.4z M28.2,500
		C28.2,239.9,239.9,28.2,500,28.2c60.9,0,119.1,11.6,172.5,32.7l-93.4,18.4c-5.9,1.2-10.5,6-11.3,12L551,221.3
		c-0.1,0.6-0.1,1.2-0.1,1.8H247.6c-25.6,0-45.4,22.6-42,48l84.7,629.9c1.8,13.6,10,24.9,21.2,31.3C144.9,859.5,28.2,693.1,28.2,500z
		 M718.9,255.3c22.3,0,39.5,19.7,36.4,41.8l-76.6,546.1c-0.4,2.8-1.1,5.4-2.1,8l-3.1,21.8C671,890.8,655.9,904,638,904H357.8
		c-17.9,0-33.1-13.3-35.5-31.1l-71.6-532.6c-0.2-1.2-0.3-2.4-0.3-3.6l-5.3-39.8c-3-22,14.2-41.6,36.4-41.6H718.9z M500,971.8
		c-63.7,0-124.5-12.7-180-35.7c3.9,1.2,8,1.8,12.2,1.8h331.5c21.1,0,39-15.6,42-36.5l88.4-629.9c3.6-25.5-16.2-48.3-42-48.3H579.2
		l15.4-118.1l104.5-20.6c4.4-0.9,7.9-3.7,9.8-7.4C864.5,154.3,971.8,314.8,971.8,500C971.8,760.1,760.1,971.8,500,971.8z"/>
	<circle class="st1" cx="379.2" cy="856.6" r="47.3"/>
	<circle class="st1" cx="500.7" cy="856.6" r="47.3"/>
	<circle class="st1" cx="608.1" cy="856.6" r="47.3"/>
	<circle class="st1" cx="547.3" cy="762" r="47.3"/>
	<circle class="st1" cx="440" cy="762" r="47.3"/>
	<circle class="st1" cx="351" cy="705.5" r="47.3"/>
	<circle class="st1" cx="440" cy="657.5" r="47.3"/>
	<circle class="st1" cx="575.6" cy="675.8" r="47.3"/>
	<circle class="st1" cx="646.2" cy="722.5" r="47.3"/>
	<circle class="st1" cx="646.2" cy="599.6" r="47.3"/>
	<circle class="st1" cx="391.9" cy="442.8" r="47.3"/>
	<circle class="st1" cx="529" cy="553" r="47.3"/>
</g>
<g class="st4">
	<path class="st5" d="M958.4,304.6c-25.1-59.4-61.1-112.7-106.9-158.5C805.7,100.3,752.4,64.3,693,39.2C631.5,13.2,566.1,0,498.8,0
		S366.2,13.2,304.6,39.2c-59.4,25.1-112.7,61.1-158.5,106.9c-45.8,45.8-81.8,99.1-106.9,158.5C13.2,366.2,0,431.5,0,498.8
		S13.2,631.5,39.2,693c25.1,59.4,61.1,112.7,106.9,158.5c45.8,45.8,99.1,81.8,158.5,106.9c61.5,26,126.8,39.2,194.2,39.2
		s132.7-13.2,194.2-39.2c59.4-25.1,112.7-61.1,158.5-106.9c45.8-45.8,81.8-99.1,106.9-158.5c26-61.5,39.2-126.8,39.2-194.2
		S984.4,366.2,958.4,304.6z M28.2,498.8c0-259.5,211.1-470.6,470.6-470.6c60.7,0,118.8,11.6,172.1,32.6l-93.1,18.4
		c-5.9,1.2-10.5,6-11.2,12l-16.9,129.6c-0.1,0.6-0.1,1.2-0.1,1.8H247c-25.6,0-45.3,22.5-41.9,47.9L289.6,899
		c1.8,13.5,9.9,24.9,21.1,31.2C144.6,857.4,28.2,691.5,28.2,498.8z M717.2,254.7c22.3,0,39.4,19.7,36.3,41.7L677,841.3
		c-0.4,2.8-1.1,5.4-2.1,7.9l-3.1,21.8c-2.5,17.6-17.6,30.8-35.4,30.8H357c-17.9,0-33-13.2-35.4-31l-71.4-531.3
		c-0.2-1.2-0.3-2.4-0.3-3.6l-5.3-39.7c-3-22,14.1-41.5,36.3-41.5H717.2z M498.8,969.4c-63.5,0-124.2-12.7-179.5-35.6
		c3.9,1.2,8,1.8,12.2,1.8h330.7c21.1,0,38.9-15.5,41.9-36.4l88.2-628.4c3.6-25.4-16.2-48.1-41.9-48.1H577.8l15.4-117.8l104.2-20.6
		c4.4-0.9,7.9-3.7,9.8-7.4c155.3,77,262.3,237.2,262.3,421.9C969.4,758.3,758.3,969.4,498.8,969.4z"/>
	<g class="st7">
		<path class="st3" d="M353.8,250.4l74.1-95.7c-24.1-14-52.1-22-82-22c-11.3,0-22.4,1.2-33,3.3L353.8,250.4z"/>
		<path class="st3" d="M295.2,326.1l-111.6-6.8c5,35.6,21.4,67.6,45.5,92.1L295.2,326.1z"/>
		<path class="st3" d="M321,285l-48.3-134.9c-48,24.1-82.6,71.1-89.4,126.6L321,285z"/>
		<path class="st3" d="M461.7,180.7l-83.4,107.7l131.6,8C509.7,251.3,491.3,210.4,461.7,180.7z"/>
		<path class="st3" d="M382.8,331.4l39.5,110.2c40-21.1,70.2-58.3,82.1-102.9L382.8,331.4z"/>
		<path class="st3" d="M339.9,337.9l-77.3,99.8c24.4,14.5,52.9,22.8,83.3,22.8c12.5,0,24.7-1.4,36.4-4.1L339.9,337.9z"/>
		<path class="st1" d="M345.9,90.2c-113.8,0-206.4,92.6-206.4,206.4S232.1,503,345.9,503s206.4-92.6,206.4-206.4
			S459.8,90.2,345.9,90.2z M509.8,296.4l-131.6-8l83.4-107.7C491.3,210.4,509.7,251.3,509.8,296.4z M427.9,154.8l-74.1,95.7
			l-40.9-114.4c10.7-2.2,21.7-3.3,33-3.3C375.8,132.7,403.8,140.8,427.9,154.8z M272.7,150.1L321,285l-137.7-8.3
			C190,221.2,224.7,174.2,272.7,150.1z M183.6,319.3l111.6,6.8l-66.1,85.4C205.1,386.9,188.6,354.9,183.6,319.3z M262.6,437.7
			l77.3-99.8l42.4,118.5c-11.7,2.7-23.9,4.1-36.4,4.1C315.5,460.5,287.1,452.1,262.6,437.7z M422.2,441.6l-39.5-110.2l121.5,7.4
			C492.4,383.3,462.2,420.5,422.2,441.6z"/>
	</g>
</g>
</svg>
