<?xml version="1.0" encoding="utf-8"?>
<!-- Generator: Adobe Illustrator 22.0.1, SVG Export Plug-In . SVG Version: 6.00 Build 0)  -->
<svg version="1.1" id="圖層_1" xmlns="http://www.w3.org/2000/svg" xmlns:xlink="http://www.w3.org/1999/xlink" x="0px" y="0px"
	 viewBox="0 0 634.3 643.3" style="enable-background:new 0 0 634.3 643.3;" xml:space="preserve">
<style type="text/css">
	.st0{fill:#0D3082;}
	.st1{fill:#A0E3F2;}
	.st2{fill:#6EB748;}
	.st3{fill:#756759;}
	.st4{fill:#ECECEC;}
	.st5{fill:#707070;}
	.st6{fill:#FFFFFF;}
	.st7{fill:#F93716;}
	.st8{fill:none;stroke:#707070;stroke-miterlimit:10;}
</style>
<g>
	<path class="st4" d="M560.6,116.2c0-10.4,4.2-19.9,11.1-26.7c-21.4-27.5-53.9-45.9-90.9-48.4c0.1,1,0.1,1.9,0.1,2.9
		c0,24.3-19.7,44-44,44c-24.3,0-44-19.7-44-44c0-1.1,0.1-2.2,0.1-3.3H126c-69.6,0-126,56.4-126,126V513c0,69.6,56.4,126,126,126
		h346.2c69.6,0,126-56.4,126-126V166.8c0-4.4-0.2-8.7-0.7-13C577.1,153.4,560.6,136.7,560.6,116.2z M392.9,282.6
		c-28.5,0-51.6-23.1-51.6-51.6c0-28.5,23.1-51.6,51.6-51.6c28.5,0,51.6,23.1,51.6,51.6C444.5,259.5,421.4,282.6,392.9,282.6z
		 M505.2,210.6c-20.8,0-37.6-16.8-37.6-37.6c0-20.8,16.8-37.6,37.6-37.6c20.8,0,37.6,16.8,37.6,37.6
		C542.8,193.8,526,210.6,505.2,210.6z"/>
	<path class="st4" d="M480.8,41.1C479.3,18.2,460.2,0,436.9,0c-23.2,0-42.2,18-43.9,40.8h79.2C475.1,40.8,478,40.9,480.8,41.1z"/>
	<path class="st4" d="M598.2,78.6c-10.3,0-19.7,4.2-26.5,10.9c14.1,18.1,23.4,40.2,25.8,64.2c0.2,0,0.4,0,0.7,0
		c20.8,0,37.6-16.8,37.6-37.6S618.9,78.6,598.2,78.6z"/>
</g>
</svg>
