<?xml version="1.0" encoding="utf-8"?>
<!-- Generator: Adobe Illustrator 22.0.1, SVG Export Plug-In . SVG Version: 6.00 Build 0)  -->
<svg version="1.1" id="圖層_1" xmlns="http://www.w3.org/2000/svg" xmlns:xlink="http://www.w3.org/1999/xlink" x="0px" y="0px"
	 viewBox="0 0 634.3 643.3" style="enable-background:new 0 0 634.3 643.3;" xml:space="preserve">
<style type="text/css">
	.st0{fill:#FFFFFF;}
	.st1{fill:#0D3082;}
</style>
<g id="XMLID_1_">
	<g>
		<path class="st0" d="M37.9,324.4c3.5,25.4,5.9,50.8,8.9,78.2c-4.5,1.3-9.4,2.7-15.5,4.4c-9.3-27.2-12.1-54.4-12.6-81.9
			c-0.1-2.7,5.7-7.8,8.5-7.6C31,317.7,37.5,321.5,37.9,324.4z"/>
		<path class="st0" d="M133.6,535.4c-3.2,3.7-6.8,7.9-12.9,14.9c-20.2-23.5-39.2-45.7-59.5-69.3c7.4-4.8,12-7.8,16.6-10.8
			C96.6,492.1,114.7,513.3,133.6,535.4z"/>
		<path class="st0" d="M277.4,601c-0.3,4-0.8,9.4-1.3,16.3c-31.4-2.4-59.1-12.3-87.7-25.2c3-6.4,5.4-11.3,7.6-15.9
			C223.9,584.7,249.8,592.5,277.4,601z"/>
		<path class="st0" d="M433.8,579c10,13.8,10.1,15.5-5.8,20.7c-21.2,6.8-42.8,12.3-64.4,17.6c-2.8,0.6-9.7-3.8-9.6-5.6
			c0.2-4.5,2.5-12,5.5-12.9C383.9,591.6,408.7,585.5,433.8,579z"/>
		<path class="st0" d="M554.3,474c4.2,2.7,8.8,5.7,16.6,10.7c-20.6,23.4-39.9,45.3-60.7,68.9c-6.2-7.6-9.5-11.6-12.6-15.4
			C516.6,516.7,535.1,495.8,554.3,474z"/>
		<path class="st0" d="M606.8,320.1c9.5,0.2,9.7,6.2,8.9,12.6c-3.1,25.8-6.6,51.5-10,77.7c-17-0.4-22.3-3.6-18.5-18.3
			c5-19.7,6.8-40.2,9.2-60.5C597.2,324.6,598.1,319.9,606.8,320.1z"/>
		<path class="st0" d="M603.1,237.4c0.7,2.8-8.2,7.9-13.3,12.6c-13.3-29.5-24.5-54.5-36.2-80.5c4-2.7,8.2-5.6,14-9.6
			C584.5,184.2,596.1,209.8,603.1,237.4z"/>
		<path class="st0" d="M518.2,97.8c-6.2,7.2-9.8,11.3-13.1,15.1c-23.8-15.7-46.9-30.8-71.8-47.1c2-4.4,4.1-9,8-17.8
			C467.2,64.8,491.8,80.7,518.2,97.8z"/>
		<path class="st0" d="M364.6,27.4c-1.1,6.7-1.8,11.7-2.6,16.8c-28.7,0-56.6,0-85.4,0c-0.8-5.1-1.6-10.1-2.6-17.3
			C304.6,22.3,333.9,22.6,364.6,27.4z"/>
		<path class="st0" d="M197.4,48.6c3,6.1,5.3,11.1,7.5,15.7c-24.3,15.4-47.5,30.1-72.2,45.8c-2.8-2.9-6.6-6.9-11.6-12.2
			C143.6,76.4,169,61.6,197.4,48.6z"/>
		<path class="st0" d="M68.9,156.8c5.6,3.5,10.2,6.5,13.9,9c-10.9,24.8-20.9,48.9-32.4,72.2c-1.7,3.4-10.9,3-20.7,5.4
			C38.7,209.2,51.3,182.7,68.9,156.8z"/>
		<path class="st0" d="M391.8,240.1c13.5-0.8,17.9,4.3,16.7,17.3c-0.9,9.4-0.8,19.1,0,28.6c1.1,11.8-4.2,14.9-15,14.5
			c-16.1-0.7-32.3-0.2-50-0.2c0,69.2,0,136.8,0,206.8c-26.1,0-50.7,0.4-75.3-0.6c-2.1-0.1-5.6-8.9-5.6-13.7
			c-0.4-56.8-0.3-113.7-0.3-170.5c0.1-25.9-0.3-22.4-21.4-21.8c-11,0.3-14.5-4.3-13.6-14.5c0.5-5.7,0.1-11.5,0.1-17.2
			c0-25.9,0.1-25.6,25.2-29c3.6-0.5,8.1-5.2,9.5-9c2-5.2,1.5-11.3,2-17c3.4-40.7,25.6-67.7,65.4-73.9c21.8-3.4,44.5-1.3,66.8-0.4
			c3.4,0.1,8.9,6.8,9.2,10.7c1.1,14.7,0.4,29.5,0.4,45.3c-21,4.5-43.7-5.5-58.6,12.1c-6,7.1-6,19.3-9.7,32.7
			C357.9,240.3,374.9,241.1,391.8,240.1z"/>
		<path class="st1" d="M319,5.3C493.4,6,635,148.8,634.3,323.2C633.5,496.8,491,638.4,317.4,638.1C143,637.8,1,495.2,1.4,320.8
			C1.8,146.6,144.9,4.5,319,5.3z M615.7,332.7c0.8-6.4,0.6-12.4-8.9-12.6c-8.7-0.2-9.6,4.5-10.4,11.5c-2.4,20.3-4.2,40.8-9.2,60.5
			c-3.8,14.7,1.5,17.9,18.5,18.3C609.1,384.2,612.6,358.5,615.7,332.7z M589.8,250c5.1-4.7,14-9.8,13.3-12.6
			c-7-27.6-18.6-53.2-35.5-77.5c-5.8,4-10,6.9-14,9.6C565.3,195.5,576.5,220.5,589.8,250z M570.9,484.7c-7.8-5-12.4-8-16.6-10.7
			c-19.2,21.8-37.7,42.7-56.7,64.2c3.1,3.8,6.4,7.8,12.6,15.4C531,530,550.3,508.1,570.9,484.7z M505.1,112.9
			c3.3-3.8,6.9-7.9,13.1-15.1c-26.4-17.1-51-33-76.9-49.8c-3.9,8.8-6,13.4-8,17.8C458.2,82.1,481.3,97.2,505.1,112.9z M428,599.7
			c15.9-5.2,15.8-6.9,5.8-20.7c-25.1,6.5-49.9,12.6-74.3,19.8c-3,0.9-5.3,8.4-5.5,12.9c-0.1,1.8,6.8,6.2,9.6,5.6
			C385.2,612,406.8,606.5,428,599.7z M408.5,257.4c1.2-13-3.2-18.1-16.7-17.3c-16.9,1-33.9,0.2-54.2,0.2c3.7-13.4,3.7-25.6,9.7-32.7
			c14.9-17.6,37.6-7.6,58.6-12.1c0-15.8,0.7-30.6-0.4-45.3c-0.3-3.9-5.8-10.6-9.2-10.7c-22.3-0.9-45-3-66.8,0.4
			c-39.8,6.2-62,33.2-65.4,73.9c-0.5,5.7,0,11.8-2,17c-1.4,3.8-5.9,8.5-9.5,9c-25.1,3.4-25.2,3.1-25.2,29c0,5.7,0.4,11.5-0.1,17.2
			c-0.9,10.2,2.6,14.8,13.6,14.5c21.1-0.6,21.5-4.1,21.4,21.8c0,56.8-0.1,113.7,0.3,170.5c0,4.8,3.5,13.6,5.6,13.7
			c24.6,1,49.2,0.6,75.3,0.6c0-70,0-137.6,0-206.8c17.7,0,33.9-0.5,50,0.2c10.8,0.4,16.1-2.7,15-14.5
			C407.7,276.5,407.6,266.8,408.5,257.4z M362,44.2c0.8-5.1,1.5-10.1,2.6-16.8c-30.7-4.8-60-5.1-90.6-0.5c1,7.2,1.8,12.2,2.6,17.3
			C305.4,44.2,333.3,44.2,362,44.2z M276.1,617.3c0.5-6.9,1-12.3,1.3-16.3c-27.6-8.5-53.5-16.3-81.4-24.8c-2.2,4.6-4.6,9.5-7.6,15.9
			C217,605,244.7,614.9,276.1,617.3z M204.9,64.3c-2.2-4.6-4.5-9.6-7.5-15.7c-28.4,13-53.8,27.8-76.3,49.3c5,5.3,8.8,9.3,11.6,12.2
			C157.4,94.4,180.6,79.7,204.9,64.3z M120.7,550.3c6.1-7,9.7-11.2,12.9-14.9c-18.9-22.1-37-43.3-55.8-65.2c-4.6,3-9.2,6-16.6,10.8
			C81.5,504.6,100.5,526.8,120.7,550.3z M82.8,165.8c-3.7-2.5-8.3-5.5-13.9-9c-17.6,25.9-30.2,52.4-39.2,86.6c9.8-2.4,19-2,20.7-5.4
			C61.9,214.7,71.9,190.6,82.8,165.8z M46.8,402.6c-3-27.4-5.4-52.8-8.9-78.2c-0.4-2.9-6.9-6.7-10.7-6.9c-2.8-0.2-8.6,4.9-8.5,7.6
			c0.5,27.5,3.3,54.7,12.6,81.9C37.4,405.3,42.3,403.9,46.8,402.6z"/>
	</g>
	<g>
	</g>
</g>
</svg>
