<?xml version="1.0" encoding="utf-8"?>
<!-- Generator: Adobe Illustrator 22.0.1, SVG Export Plug-In . SVG Version: 6.00 Build 0)  -->
<svg version="1.1" id="圖層_1" xmlns="http://www.w3.org/2000/svg" xmlns:xlink="http://www.w3.org/1999/xlink" x="0px" y="0px"
	 viewBox="0 0 1000 1000" style="enable-background:new 0 0 1000 1000;" xml:space="preserve">
<style type="text/css">
	.st0{fill:#0E3183;}
	.st1{fill:#FFFFFF;}
	.st2{enable-background:new    ;}
</style>
<g>
	<g>
		<circle class="st0" cx="500" cy="500" r="500"/>
	</g>
	<g>
		<g>
			<path class="st1" d="M656.2,739.3c-14.7,10.6-27.8,20.1-43.2,31.3c-16.3-32-23.6-64.2-26-97.4c-2.5-33.3-3.2-66.8-4.7-101.5
				c-59,0-117.2,0-178.4,0c0.5,67.9,0,134.8-30.7,200c-13.8-11.6-26-21.8-39-32.6c36.3-63.2,23.8-131.8,27.3-200.4
				c90.2,0,179,0,269.6,0C630.6,606.9,619.2,675.8,656.2,739.3z"/>
		</g>
		<g>
			<path class="st1" d="M402.8,720.8c24.7,0,46.6,0,70.8,0c0.5-7.6,0.8-13.4,1.3-21.7c-20.3,0-38.5,0-58.1,0c0-25,0-47.5,0-72.2
				c19.4-1,38.5-1.9,57.5-2.9c0-2.8,0-5.7,0-8.5c-19.3,0-38.6,0-59.5,0c0-12.6,0-20.7,0-30.9c51.8,0,102.9,0,155.9,0
				c0,8.6,0,17.2,0,27c-18.9,0.9-37.2,1.8-55.5,2.6c-0.1,3.3-0.1,6.5-0.2,9.8c17.9,0.9,35.9,1.8,55.7,2.8c0,23.5,0,45.9,0,70.9
				c-17,0-34.4,0-53.8,0c-0.7,8.1-1.2,13.9-2,22.5c22.3,0,42.6,0,65.3,0c-1.9,14-3.4,25.1-5.1,37.4c-55.7,0-110.5,0-167.7,0
				C406.1,746.1,404.6,734.6,402.8,720.8z M472.2,654.5c-9.4,0.7-16,1.2-22.6,1.7c-0.8,2.5-1.6,5.1-2.3,7.6
				c7,3.1,14.1,6.2,23.9,10.5C471.6,665.4,471.8,661.5,472.2,654.5z M535.6,656.4c-7.1,0-14.1,0-22.1,0c0.5,5.4,0.8,9.3,1.2,14.8
				c7.6-0.3,14-0.6,20.9-0.9C535.6,664.8,535.6,661.4,535.6,656.4z"/>
		</g>
		<g>
			<path class="st1" d="M376.8,302.7c-13.1,0-24.4,0-39.2,0c1.8-39.8,3.5-78.6,5.2-118.8c43.7,0,85.5,0,129.2,0
				c0,11.9,0,23.5,0,37.9c-27.3,0-54.9,0-84.5,0c-0.7,9.8-1.2,17.2-1.9,26.9c27.1-8.4,53.1-8.5,71.4,11
				c12.8,13.7,23.8,32.9,26.8,51.2c7.1,42.7-25.4,79.2-67.7,82.2c-47,3.4-81.8-26.7-79.5-62.1c12.5,0,25,0,38.2,0
				c20.7,23.6,38.7,28,54.5,12.7c12.3-11.9,12.9-39.2,1.1-51C416.6,279,394.2,283,376.8,302.7z"/>
		</g>
		<g>
			<path class="st1" d="M665.8,283.9c-2.9,18.3-4,34.1-8.1,49.1c-11.1,40.5-36.8,60.5-75,60.2c-37.1-0.3-61.8-20-73.1-60
				c-9.7-34.5-9.2-69.2,3.3-103c12.7-34.1,37.4-51.1,71.5-50.5c33.5,0.5,57.6,17,69.2,50.5C659.9,248.1,662.2,267.4,665.8,283.9z
				 M620.3,286.1c-3.6-16.1-4.9-33.6-11.7-48.7c-3.8-8.4-16.7-17.7-25.4-17.6c-8.7,0.1-21.7,9.5-25.2,18.1
				c-13.1,31.2-12.9,64.3-0.5,95.5c3.5,8.9,17.5,19.1,26.5,19c9.1-0.1,21.8-10.5,26.1-19.7C616.4,319.2,616.9,302.7,620.3,286.1z"/>
		</g>
		<g>
			<path class="st1" d="M357,523.1c0-21.4,0-41.2,0-62.3c14.5,0,27.8,0,42.6,0c1.5,8.9,3,17.7,4.6,27.5c21.8,0,42.9,0,65.4,0
				c0.8-13.4,1.5-25.3,2.2-39c14.9,0,29.5,0,46,0c1,12.2,2,24.6,3.1,38.4c22.9,0,44.7,0,67.5,0c1.4-9.4,2.6-17.7,4.1-27.6
				c13.6,0,26.7,0,41.8,0c0,20.4,0,40.6,0,63C542.6,523.1,450.8,523.1,357,523.1z"/>
		</g>
	</g>
	<g class="st2">
		<path class="st1" d="M338.9,874.2c0.8,0.7,2,1.3,3.5,1.8s2.9,0.7,4.2,0.7c4.2,0,6.2-1.5,6.2-4.5c0-0.8-0.2-1.6-0.6-2.3
			c-0.4-0.7-1-1.2-1.7-1.7s-2.2-1.3-4.3-2.4c-3.1-1.6-5.1-3-5.9-4.2s-1.2-2.5-1.2-4c0-2.3,0.9-4.1,2.8-5.5c1.9-1.4,4.2-2.1,7.1-2.1
			c2.9,0,4.9,0.3,6.1,1v3.6c-1.7-1.2-3.8-1.7-6.5-1.7c-1.8,0-3.3,0.4-4.4,1.2c-1.1,0.8-1.7,1.8-1.7,3.2c0,0.9,0.2,1.6,0.6,2.2
			c0.4,0.6,0.9,1.2,1.6,1.7s2,1.2,4,2.2c2.8,1.4,4.8,2.7,5.9,4.1c1.1,1.3,1.7,2.8,1.7,4.4c0,2.4-0.9,4.3-2.7,5.7
			c-1.8,1.3-4.3,2-7.4,2c-1,0-2.2-0.2-3.8-0.5c-1.6-0.3-2.6-0.7-3.3-1.2V874.2z"/>
		<path class="st1" d="M378.8,853.3H376v23.1h2.8v2.8H370v-2.8h2.8v-23.1H370v-2.8h8.8V853.3z"/>
		<path class="st1" d="M417.4,879.2h-4l-14.9-23.1c-0.3-0.5-0.6-1.1-0.9-1.7h-0.1c0.1,0.6,0.1,1.9,0.1,3.8v21h-3.2v-28.6h4.2
			l14.5,22.9c0.7,1.2,1.1,1.8,1.2,2h0.1c-0.1-0.9-0.2-2.4-0.2-4.3v-20.5h3.2V879.2z"/>
		<path class="st1" d="M455.4,878c-2.1,1.1-4.7,1.7-7.9,1.7c-4,0-7.2-1.3-9.7-4c-2.5-2.6-3.7-6.1-3.7-10.3c0-4.4,1.3-8.1,4-11
			s6.2-4.4,10.5-4.4c2.7,0,4.9,0.4,6.7,1.2v3.4c-2.1-1.1-4.3-1.7-6.8-1.7c-3.4,0-6.1,1.1-8.1,3.4c-2,2.3-3,5.2-3,8.8
			c0,3.4,0.9,6.2,2.8,8.3c1.9,2.2,4.4,3.2,7.6,3.2c2.9,0,5.4-0.6,7.5-1.9V878z"/>
		<path class="st1" d="M487.2,879.2h-15v-28.6h14.4v2.9h-11.2v9.7h10.4v2.9h-10.4v10.2h11.9V879.2z"/>
		<path class="st1" d="M540,879.2h-16.1v-2.8h6.5v-22.5l-6.7,2v-3l9.7-3v26.5h6.5V879.2z"/>
		<path class="st1" d="M556.7,875.7c1.6,0.9,3.3,1.3,5,1.3c2.6,0,4.6-1.1,6.1-3.2s2.2-5.1,2.2-9.1c0,0,0,0-0.1,0
			c-1.2,2.5-3.4,3.7-6.4,3.7c-2.5,0-4.5-0.8-6-2.5c-1.6-1.7-2.3-3.8-2.3-6.4c0-2.7,0.8-5,2.5-6.8c1.7-1.8,3.9-2.7,6.6-2.7
			c2.9,0,5.1,1.1,6.6,3.4c1.5,2.2,2.3,5.5,2.3,9.7c0,5.2-1,9.2-3,12.1c-2,2.9-4.8,4.4-8.5,4.4c-1.9,0-3.5-0.3-4.9-1V875.7z
			 M558.3,859.2c0,2,0.5,3.6,1.6,4.8s2.5,1.8,4.3,1.8c1.6,0,3-0.5,4-1.6c1.1-1.1,1.6-2.4,1.6-3.9c0-2.1-0.5-3.9-1.6-5.3
			c-1.1-1.4-2.5-2.2-4.3-2.2c-1.7,0-3,0.6-4.1,1.9C558.9,855.9,558.3,857.4,558.3,859.2z"/>
		<path class="st1" d="M589.6,875.7c1.6,0.9,3.3,1.3,5,1.3c2.6,0,4.6-1.1,6.1-3.2s2.2-5.1,2.2-9.1c0,0,0,0-0.1,0
			c-1.2,2.5-3.4,3.7-6.4,3.7c-2.5,0-4.5-0.8-6-2.5c-1.6-1.7-2.3-3.8-2.3-6.4c0-2.7,0.8-5,2.5-6.8c1.7-1.8,3.9-2.7,6.6-2.7
			c2.9,0,5.1,1.1,6.6,3.4c1.5,2.2,2.3,5.5,2.3,9.7c0,5.2-1,9.2-3,12.1c-2,2.9-4.8,4.4-8.5,4.4c-1.9,0-3.5-0.3-4.9-1V875.7z
			 M591.2,859.2c0,2,0.5,3.6,1.6,4.8s2.5,1.8,4.3,1.8c1.6,0,3-0.5,4-1.6c1.1-1.1,1.6-2.4,1.6-3.9c0-2.1-0.5-3.9-1.6-5.3
			c-1.1-1.4-2.5-2.2-4.3-2.2c-1.7,0-3,0.6-4.1,1.9C591.7,855.9,591.2,857.4,591.2,859.2z"/>
		<path class="st1" d="M639.6,871.5h-3.7v7.7h-3.1v-7.7h-13.5v-2l12.8-18.9h3.8V869h3.7V871.5z M632.8,869v-12.6c0-0.9,0-1.9,0.1-3
			h-0.1c-0.1,0.3-0.5,1-1.1,2.2l-9,13.4H632.8z"/>
	</g>
</g>
</svg>
