<?xml version="1.0" encoding="utf-8"?>
<!-- Generator: Adobe Illustrator 22.0.1, SVG Export Plug-In . SVG Version: 6.00 Build 0)  -->
<svg version="1.1" id="圖層_1" xmlns="http://www.w3.org/2000/svg" xmlns:xlink="http://www.w3.org/1999/xlink" x="0px" y="0px"
	 viewBox="0 0 650 650" style="enable-background:new 0 0 650 650;" xml:space="preserve">
<style type="text/css">
	.st0{fill:#0D3082;}
	.st1{fill:#A0E3F2;}
	.st2{fill:#6EB748;}
	.st3{fill:#756759;}
	.st4{fill:#ECECEC;}
	.st5{fill:#707070;}
	.st6{fill:#FFFFFF;}
	.st7{fill:#F93716;}
	.st8{fill:none;stroke:#707070;stroke-miterlimit:10;}
</style>
<g>
	<path class="st3" d="M615.8,180.8C571,92.6,500,35.8,404.4,10.2c-21.2-5.7-42.9-8.6-64.9-9.4c-1.4-0.1-2.8-0.5-4.2-0.8
		c-6.6,0-13.2,0-19.8,0c-7,0.7-14,1.3-21,2c-72.8,7-136.3,35.4-190,84.9c-50.6,46.7-83,104-97.2,171.3c-3.6,17.3-4.5,35.2-6.7,52.9
		c-0.2,1.6-0.6,3.2-0.8,4.7c0,6.3,0,12.5,0,18.8c0.6,6.7,1.2,13.4,1.9,20.1c6.9,74.2,35.8,138.6,86.6,192.9
		c48.1,51.3,106.9,84.5,176.3,96.7c107.7,19,202.7-8.6,283.1-82.7c53-48.9,85.3-110,97.4-181.3C656.9,310.6,647.7,243.6,615.8,180.8
		z M322.1,610.9C167.3,609.5,37.6,482.9,39.3,321.9C41,165.3,169.2,37.6,328.8,39.6c157.4,2,282.2,130.8,281.8,286
		C610.7,483.2,481.5,612.4,322.1,610.9z"/>
	<path class="st3" d="M433.6,208.4c-25.7-5-51.2-2.8-76.6,2.2c-5.6,1.1-11.1,2.2-18.1,3.7c4.3-9.8,7.7-18.6,11.9-26.9
		c14-27.7,34-50.5,57.9-69.9c6.7-5.4,7.8-11.9,3.2-17c-4.6-5.2-11-4.9-17.3,1.2c-12,11.5-24,23.1-35.8,34.9c-4,4-7.3,8.7-11.4,13.6
		c-0.6-2.4-1.1-4.1-1.5-5.9c-6.7-28.4-21.8-50-49.9-60.7c-15.8-6-32.3-8.8-49.3-9c-8.9-0.1-15.4,6.3-14.1,15.8
		c1.2,8.6,1.8,17.4,2.9,26c4.3,35.3,25.4,60.2,59.6,69.8c9.3,2.6,18.9,4.2,29.1,6.4c-1.6,4.9-3.1,9.4-4.7,13.9
		c-3.1,8.9-3.1,9-12.6,6.9c-21.3-4.6-42.7-8-64.6-7.7c-33.3,0.4-61.8,11.6-85.1,35.7c-17.6,18.2-29.1,39.9-36.5,63.8
		c-16.7,53.8-12.3,106.8,7.6,158.8c12.7,33.1,32.6,61.3,60.2,83.8c18.6,15.2,40.3,23.7,63.8,27.1c8.6,1.2,17.9,1.4,26.3-0.6
		c27-6.4,54-8.4,81.3-2.3c11.4,2.6,22.9,5.6,34.6,3.9c25.9-3.8,49.6-13,69.9-30.1c31.2-26.3,50.9-60.2,63.7-98.3
		c10.8-32,13.2-65.1,10.1-98.6c-2.7-30-10.5-58.3-26.9-83.8C492.7,236,468.2,215.1,433.6,208.4z M499.8,435.1c0,1-0.1,2-0.4,2.9
		c-10.7,35.2-28.3,65.9-58.9,87.7c-12.6,9-29.1,14.7-41.3,14.7c-7.2,0-12.2-3.8-12.6-9.8c-0.5-6.5,3-11.3,9.8-11.8
		c21.7-1.4,37.4-13.1,51.1-28.6c13.6-15.4,22.8-33.3,29.2-52.8c0.9-2.7,1.7-5.4,2.9-7.9c2.6-5.2,7.6-7.5,12.7-6.1
		C497.1,425,500.1,429.6,499.8,435.1z M520.4,379.9c6-0.2,10.9,4.7,11,10.9c0.1,6.4-4.7,11.4-10.9,11.5c-5.9,0-10.5-4.5-10.8-10.6
		C509.4,385.4,514.2,380.1,520.4,379.9z"/>
</g>
</svg>
