<?xml version="1.0" encoding="utf-8"?>
<!-- Generator: Adobe Illustrator 22.0.1, SVG Export Plug-In . SVG Version: 6.00 Build 0)  -->
<svg version="1.1" id="圖層_1" xmlns="http://www.w3.org/2000/svg" xmlns:xlink="http://www.w3.org/1999/xlink" x="0px" y="0px"
	 viewBox="0 0 650 650" style="enable-background:new 0 0 650 650;" xml:space="preserve">
<style type="text/css">
	.st0{fill:#0D3082;}
	.st1{fill:#A0E3F2;}
	.st2{fill:#6EB748;}
	.st3{fill:#756759;}
	.st4{fill:#ECECEC;}
	.st5{fill:#707070;}
	.st6{fill:#F93716;}
	.st7{fill:#FFFFFF;}
	.st8{fill:none;stroke:#707070;stroke-miterlimit:10;}
</style>
<g id="XMLID_1_">
	<g>
		<path class="st5" d="M180.8,469.7h325c0,32.1,0,64.2,0.1,96.3c0,15.1-0.8,30.1-5.7,44.6c-8,23.6-25.7,37.1-50.6,37.3
			c-45.3,0.4-90.5,0.2-135.8,0.2c-23.8,0-47.6,0-71.4,0c-34.3-0.1-56.5-19.7-60.4-53.7c-0.8-7.2-1.3-14.4-1.3-21.6
			C180.6,538.4,180.7,504.1,180.8,469.7z M203.6,471c-0.2,1.8-0.4,2.8-0.4,3.8c-0.1,26.8-0.5,53.5-0.2,80.3
			c0.2,14.2,0.4,28.5,2.9,42.4c3.7,20.9,14.5,28.8,36.1,28.8c67.5,0,135.1,0,202.6,0c19.2,0,29.1-7.3,34.3-25.7
			c1.6-5.6,2.5-11.7,2.5-17.5c0.5-34.8,0.7-69.6,0.9-104.4c0-2.5-0.5-5-0.8-7.7C388.8,471,296.5,471,203.6,471z"/>
		<path class="st6" d="M429.2,96.8H288.7h-0.1h-32.2c0.2-2.4-1.2-4.1-4.7-6.2c-26.2-15.3-31.9-47.7-12.7-70.5
			c8.6-10.2,20.1-15.8,33.5-15.8c46.3-0.2,92.6-0.1,138.9-0.1c21.4,0,39.5,13.9,45,34.5c5.4,20.1-3.5,41.1-21.9,51.8
			c-2,1.2-4,2.3-6.6,3.8C428.4,95.1,428.8,96,429.2,96.8z"/>
		<path class="st6" d="M250.5,418.5c1.2,5,3.7,8.2,9.1,7.9c4.8-0.3,6.8-3.7,8.1-7.8c3.3-11,6.6-21.9,10-32.9
			c1.6-5.1,3.2-10.2,4.9-15.3c0.4,0.1,0.8,0.2,1.2,0.3c0.8,18.3,1.5,36.6,2.3,55c5.9,0,10.6,0,16.3,0c-1.2-24.7-2.5-48.9-3.7-72.8
			c-1.4-0.4-1.8-0.6-2.2-0.6c-23.8,0.9-18.5-5.1-25.7,19c-2.9,9.8-5.8,19.6-9.2,30.8c-1-2.8-1.5-3.9-1.8-5.1
			c-3.7-13.3-7.2-26.6-11.1-39.8c-0.5-1.8-2.5-4.4-4-4.6c-6.5-0.5-13.1-0.2-20.3-0.2c-1.5,25-3,49.3-4.4,73.7c5.8,0,10.6,0,15.7,0
			c0.9-17.5,1.7-34.5,2.5-51.5c0.3-0.1,0.7-0.1,1-0.2c0.4,1.1,0.9,2.2,1.1,3.3C243.8,391.3,247.2,404.9,250.5,418.5z M203.5,305.6
			c0,0.5,0,0.9,0.1,1.4c2.8,0,5,0,7.3,0c87.9,0,175.8,0,263.7,0c4,0,6.1-0.1,7.1-1.4h23.7c0.4,7,0.6,14.2,0.5,21.3
			c-0.1,47.6-0.1,95.2-0.1,142.7h-325c0.1-49.8,0.1-99.5-0.5-149.3c-0.1-5,0-9.9,0.2-14.8H203.5z M315.6,420.8
			c0,1.8,0.3,3.6,0.4,5.4c5.5,0,10.3,0,15.9,0c0-23.9,0-47.6-0.2-71.2c0-0.9-2.1-2.3-3.4-2.6c-2-0.4-4.2,0.1-6.3-0.2
			c-4.9-0.6-6.6,1.1-6.6,6.3C315.8,379.3,315.6,400,315.6,420.8z M437.8,414.9c5,10.9,14.1,14.9,26.3,10.8
			c-6.6-11.2-13.2-22.3-19.8-33.3c-4.7-7.9-4.6-8.9,1.3-16.2c5.8-7.2,11.4-14.6,17.6-22.6c-15-3.9-22.4-0.4-28.8,11.2
			c-3.6,6.6-8.1,12.6-12.3,18.8c-0.5-0.2-1-0.4-1.6-0.6c0-9.8,0-19.7,0-30.4c-4.4,0-8.1,0.1-11.9,0c-3.6-0.2-4.8,1.5-4.8,5
			c0.1,22.1,0.1,44.1,0.2,66.2c0,0.8,0.5,1.6,0.8,2.8c3.4,0,6.8-0.2,10.1,0.1c4.2,0.4,5.8-1.4,5.6-5.4c-0.2-4.4-0.3-8.9-0.1-13.4
			c0.3-4.9,1.6-9.5,7.4-12.4C431.3,402.2,434.8,408.4,437.8,414.9z M393.3,426.2c0-4.5,0-8.7,0-13.7c-9.7,0-19.1,0-28.1,0
			c-0.5-1.3-0.8-1.7-0.8-2.1c-0.1-15.5-0.1-30.9-0.2-46.4c0-12.7-0.7-13.3-13.1-11.5c-1.4,0.2-3.5,2.4-3.5,3.7
			c-0.2,23.1-0.2,46.1-0.2,69.9C363.3,426.2,378.2,426.2,393.3,426.2z"/>
		<path class="st5" d="M203.5,305.6h-22.9c1.6-37.7,11.1-73.2,27.8-107.4c15.7-32.2,30.9-64.7,46.6-96.9c0.9-1.8,1.4-3.3,1.5-4.6
			h32.2c-5.7,0-8.9,2.4-11.2,7.4c-5.6,12.4-11.7,24.5-17.3,36.8c-6.2,13.4-12.4,26.8-18.6,40.2c-8.8,18.9-17.4,37.9-25.5,57.1
			C207.1,259.2,202.1,281.4,203.5,305.6z"/>
		<path class="st7" d="M464,425.7c-12.1,4.1-21.2,0.1-26.3-10.8c-3-6.5-6.4-12.8-9.8-19.4c-5.8,2.9-7.2,7.4-7.4,12.4
			c-0.2,4.4-0.1,8.9,0.1,13.4c0.1,4-1.5,5.8-5.6,5.4c-3.3-0.3-6.7-0.1-10.1-0.1c-0.4-1.2-0.8-2-0.8-2.8c-0.1-22.1-0.1-44.1-0.2-66.2
			c0-3.5,1.2-5.1,4.8-5c3.7,0.2,7.5,0,11.9,0c0,10.7,0,20.6,0,30.4c0.5,0.2,1.1,0.4,1.6,0.6c4.1-6.3,8.7-12.3,12.3-18.8
			c6.4-11.7,13.8-15.1,28.8-11.2c-6.2,8-11.8,15.3-17.6,22.6c-5.9,7.3-6,8.3-1.3,16.2C450.9,403.4,457.4,414.5,464,425.7z"/>
		<path class="st7" d="M469.6,238.8c8.7,18.9,12.2,39.2,12.8,59.9c0.1,3.8,0.1,5.8-0.8,6.9H203.5c-1.3-24.2,3.7-46.4,12.5-67.4
			c8.1-19.2,16.8-38.2,25.5-57.1c3.1-0.2,8.9,0.1,19.6,1.7c25.1,3.7,67.8,36.6,92.7,40.8c42.7,7.2,93.4-7.4,103.8-10.6
			C461.7,221.6,465.7,230.2,469.6,238.8z"/>
		<path class="st7" d="M365.2,412.5c9,0,18.4,0,28.1,0c0,5,0,9.2,0,13.7c-15.1,0-30,0-45.8,0c0-23.8-0.1-46.9,0.2-69.9
			c0-1.3,2.1-3.5,3.5-3.7c12.4-1.8,13-1.2,13.1,11.5c0,15.5,0.1,30.9,0.2,46.4C364.4,410.8,364.6,411.2,365.2,412.5z"/>
		<path class="st7" d="M296.4,352.3c0.4,0,0.8,0.2,2.2,0.6c1.2,23.9,2.4,48.1,3.7,72.8c-5.7,0-10.4,0-16.3,0
			c-0.8-18.4-1.5-36.7-2.3-55c-0.4-0.1-0.8-0.2-1.2-0.3c-1.6,5.1-3.3,10.2-4.9,15.3c-3.4,11-6.7,21.9-10,32.9
			c-1.2,4.1-3.3,7.5-8.1,7.8c-5.4,0.3-7.9-2.9-9.1-7.9c-3.3-13.6-6.7-27.2-10.2-40.7c-0.3-1.1-0.8-2.2-1.1-3.3
			c-0.3,0.1-0.7,0.1-1,0.2c-0.8,17-1.7,34-2.5,51.5c-5.1,0-9.9,0-15.7,0c1.5-24.4,2.9-48.8,4.4-73.7c7.3,0,13.8-0.3,20.3,0.2
			c1.5,0.1,3.4,2.7,4,4.6c3.9,13.2,7.4,26.5,11.1,39.8c0.3,1.2,0.8,2.4,1.8,5.1c3.4-11.2,6.3-21,9.2-30.8
			C277.9,347.2,272.6,353.1,296.4,352.3z"/>
		<path class="st5" d="M406.5,102.7c-1.9-4-4.5-5.7-8.8-5.7C361.3,97,325,97,288.7,96.8h140.5c1.9,4.1,3.7,8.1,5.5,12
			c15.4,32.4,30.6,64.8,46.3,97c15.5,31.8,22.5,65.2,24.3,99.8h-23.7c0.9-1.1,1-3.2,0.8-6.9c-0.6-20.8-4.1-41-12.8-59.9
			c-4-8.6-7.9-17.2-11.9-25.8C440.7,176.2,423.5,139.5,406.5,102.7z"/>
		<path class="st7" d="M322,352.3c2.1,0.3,4.3-0.3,6.3,0.2c1.3,0.3,3.4,1.7,3.4,2.6c0.2,23.6,0.2,47.3,0.2,71.2
			c-5.6,0-10.4,0-15.9,0c-0.2-1.8-0.4-3.6-0.4-5.4c0-20.8,0.2-41.5-0.1-62.3C315.4,353.4,317.2,351.7,322,352.3z"/>
		<path class="st7" d="M481.6,471c0.3,2.7,0.9,5.2,0.8,7.7c-0.2,34.8-0.4,69.6-0.9,104.4c-0.1,5.9-1,11.9-2.5,17.5
			c-5.2,18.4-15.1,25.7-34.3,25.7c-67.5,0-135.1,0-202.6,0c-21.5,0-32.4-7.9-36.1-28.8c-2.4-13.9-2.7-28.2-2.9-42.4
			c-0.3-26.7,0.1-53.5,0.2-80.3c0-1,0.2-2.1,0.4-3.8C296.5,471,388.8,471,481.6,471z"/>
	</g>
	<g>
		<path class="st8" d="M238.2,182.8c0,0-1.1-1.3,3.3-1.6c3.1-0.2,8.9,0.1,19.6,1.7c25.1,3.7,67.8,36.6,92.7,40.8
			c42.7,7.2,93.4-7.4,103.8-10.6c1.3-0.4,1.9-0.6,1.9-0.6"/>
	</g>
</g>
</svg>
