<?xml version="1.0" encoding="utf-8"?>
<!-- Generator: Adobe Illustrator 22.0.1, SVG Export Plug-In . SVG Version: 6.00 Build 0)  -->
<svg version="1.1" id="圖層_1" xmlns="http://www.w3.org/2000/svg" xmlns:xlink="http://www.w3.org/1999/xlink" x="0px" y="0px"
	 viewBox="0 0 650 650" style="enable-background:new 0 0 650 650;" xml:space="preserve">
<style type="text/css">
	.st0{fill:#0D3082;}
	.st1{fill:#A0E3F2;}
	.st2{fill:#6EB748;}
	.st3{fill:#756759;}
	.st4{fill:#ECECEC;}
	.st5{fill:#707070;}
	.st6{fill:#FFFFFF;}
	.st7{fill:#F93716;}
	.st8{fill:none;stroke:#707070;stroke-miterlimit:10;}
</style>
<g>
	<path class="st3" d="M640.2,247.9C601.9,84,441.4-22.3,275,4C200.1,15.8,136.7,49.8,85.5,105.8C36.6,159.2,8.8,222.4,1.9,294.7
		c-0.7,6.8-1.3,13.7-1.9,20.5c0,6.3,0,12.5,0,18.8c0.3,1.6,0.7,3.2,0.8,4.8c0.8,9.8,1.1,19.8,2.5,29.5
		c10.5,74.1,41.9,138.1,96.2,189.7c78,74.1,171.3,103,277.5,87c72.4-10.9,134.6-43.8,184.1-97.8
		C639.7,461.6,666.5,360.7,640.2,247.9z M610.5,328.5c-2,156-129.8,282-285.3,281.6C169.8,610.8,37.9,483.8,39.6,321.5
		C41.2,166,167.7,38.3,326.8,39.3C486.4,40.2,612.5,171.2,610.5,328.5z"/>
	<path class="st3" d="M369.9,274.6c0-40.5,0-80.6,0-120.9c-11.5,0-22.3,0-33.7,0c0,44.7,0,89,0,133.3c-1.9-1.3-2.9-2.8-3.8-4.3
		c-23.6-39.4-47.4-78.7-70.4-118.5c-4.9-8.5-10.1-12.6-20-11.2c-6.2,0.8-12.7,0.2-19.4,0.2c0,21.1,0,41.4,0,61.6
		c0,20.3,0,40.6,0,61.6c-47.7-39.4-107-25.6-136.4,8.9c-32.1,37.6-32.3,90.6-0.1,127c16.4,18.6,36.8,29.6,61.5,32.1
		c27.8,2.8,53.1-2.9,74.8-21.7c-1,1.3-1.9,2.6-2.9,3.9c-17.8,24.6-23.3,51.8-16.1,81.1c11.6,47.1,56,77.6,104.2,71.6
		c32.6-4,58-19.8,73.9-49.1c12.2-22.5,13.2-46.6,8.5-71.1c-6.1-32.2-12.5-64.3-18.8-96.4c-5.5-27.9,5.8-53.4,29.8-67.6
		c24.3-14.3,54.9-11.2,75.8,7.6c21.3,19.2,26.3,44.1,13.9,70.3c-10.1,21.4-26.1,35.2-50.4,38c-2.6,0.3-5.1,0.5-7.5,0.8
		c0,11.2,0,21.8,0,32.4c31.5-0.6,69.1-14,87-52c17-36.1,11.9-81-15.8-108.7C462.9,242.5,417.5,242.7,369.9,274.6z M306.7,546.6
		c-34.8,3.5-64.7-18-71.9-52.3c-8.7-41.7,24-71.8,53.3-72.6c2.8-0.1,5.5-0.7,8.5-1.1c0-10.7,0-21.1,0-31.5
		c-21.4-1.1-46.8,4.7-70.2,28.9c-7.3-7.7-14.6-15.4-21.9-23.2c-4.4,3.1-8.5,6.2-12.8,8.8c-28.3,17-65.2,9-84.3-18.1
		c-19-26.9-13.4-63.4,12.5-84.7c40.9-33.7,91.6-6.8,100.4,31.4c1,4.5,1.3,9.1,2.3,13.6c0.3,1.4,1.9,3.5,3,3.5
		c10,0.3,20,0.2,30.6,0.2c0-45.3,0-89.8,0-134.3c0.4-0.1,0.7-0.2,1.1-0.3c0.9,1.4,1.9,2.8,2.8,4.3c24.8,42.1,49.9,84.1,74.3,126.5
		c2.9,5,2.6,12,3.7,18c4.3,24.6,8.9,49.2,12.9,73.9c2.8,17.4,6.5,34.8,7.2,52.2C359.1,519.9,336.8,543.6,306.7,546.6z"/>
	<path class="st3" d="M449.1,237.2c37.5,0,67.1-29.5,67.1-67c0-37.3-29.4-66.8-66.7-66.8c-37.6,0-67.3,29.6-67.4,66.9
		C382.2,207.2,412.1,237.1,449.1,237.2z M418.9,215.4c20.5,0,40.3,0,60.2,0C474.5,227.5,430,229.6,418.9,215.4z M496.1,140.2
		c11.8,19.8,11.8,39.5,0.4,59.4c-2,3.4-4.7,5.1-8.9,5c-10.5-0.2-21.1-0.1-32.4-0.1c0-8.7-0.1-16.8,0-24.8c0.1-3.5,2.8-4.1,5.6-4.1
		c8.2,0,16.4,0,24.6,0c0.4-0.8,0.7-1.2,0.7-1.7c0.7-8.8,0.7-8.8-7.9-8.8c-7.2,0-14.5,0-22.6,0c0-7.3-0.1-14.3,0-21.3
		c0.1-9-1.7-8.6,8.8-8.6c7.6,0,15.2,0.1,22.7,0C491.2,135.2,494,136.7,496.1,140.2z M479.2,124c-19.9,0-39.3,0-59.1,0
		C433,111.9,463.5,111.8,479.2,124z M404.1,138.2c1.1-1.4,3.2-2.7,4.9-2.7c10.5-0.3,21.1-0.2,31.6,0c1.1,0,3.2,2,3.2,3
		c0.1,21.4,0,42.8,0,64.2c0,0.3-0.2,0.6-0.6,1.4c-6.3,0-12.4,0-19.3,0c0-8.3,0-16.3,0-24.3c0-9.6-0.9-10.3-11.4-7.9
		c0,9.1,0.1,18.3-0.1,27.5c0,1.7-1.2,4.8-1.8,4.8c-2.2-0.1-5.2-0.4-6.5-1.9C390.5,186.4,390.5,154.4,404.1,138.2z"/>
</g>
</svg>
