<?xml version="1.0" encoding="utf-8"?>
<!-- Generator: Adobe Illustrator 22.0.1, SVG Export Plug-In . SVG Version: 6.00 Build 0)  -->
<svg version="1.1" id="圖層_1" xmlns="http://www.w3.org/2000/svg" xmlns:xlink="http://www.w3.org/1999/xlink" x="0px" y="0px"
	 viewBox="0 0 650 650" style="enable-background:new 0 0 650 650;" xml:space="preserve">
<style type="text/css">
	.st0{fill:#0D3082;}
	.st1{fill:#A0E3F2;}
	.st2{fill:#6EB748;}
	.st3{fill:#756759;}
	.st4{fill:#ECECEC;}
	.st5{fill:#707070;}
	.st6{fill:#FFFFFF;}
	.st7{fill:#F93716;}
	.st8{fill:none;stroke:#707070;stroke-miterlimit:10;}
</style>
<path class="st2" d="M445.8,277.4c-12.4,3.3-24,6.4-36.4,9.8c4.2,15.8,8.2,31,12.2,46.3c3.8,14.5,7.9,28.9,11.3,43.5
	c0.8,3.3,0.6,7.6-1,10.5c-14.1,25.2-28.7,50.2-43.1,75.2c-0.5,0.9-1.3,1.6-2.7,3.3c-5.3-19.6-10.5-38.3-15.7-57.7
	c-12.1,3.2-23.8,6.3-36.3,9.7c1.3,5.4,2.5,10.6,3.8,15.7c6.3,23.5,13.1,46.8,18.9,70.4c1.3,5.4,0.7,12.6-2,17.4
	c-19.6,35.6-39.9,70.8-60,106.1c-0.5,0.9-1.2,1.7-2.7,3.6c-3.3-12.4-6.4-23.8-9.4-35.2c-12-44.9-19.9-90.4-19-137
	c1.1-54.3,11.3-106.2,41.7-152.5c25.2-38.4,59.2-67.4,98.5-90.6c55.7-32.9,116-52.6,179.7-62.9c5.4-0.9,7.4,1.8,9.1,6
	c12,29.9,20.7,60.8,26.6,92.5c6.6,35.1,9.5,70.6,8.2,106.4c-3.4,92.7-42.8,165.4-119.8,217.7c-40.4,27.4-84.8,45.4-131.2,59.5
	c-13.7,4.2-27.4,8.5-41.1,12.7c-2.4,0.8-5,1.3-8.9,2.3c1.5-3.2,2.3-5.2,3.4-7.2c31.9-56.1,63.9-112.1,95.7-168.3
	c3.2-5.6,7.5-8.5,13.5-10.1c26.5-6.9,52.8-14.1,79.3-20.9c5.7-1.5,7.3-3.5,5.3-9.4c-3.1-9.2-5.1-18.8-7.9-29.2
	c-19.3,5.1-38.2,10-58.9,15.4c21-36.5,41.2-71.6,61.8-107.3c-10.9-6.3-21.3-12.4-32.6-19c-8,13.7-15.8,27-24.4,41.7
	C456.2,315.6,451,296.7,445.8,277.4z"/>
<path class="st2" d="M212.2,324c-3.1,11.4-6.2,22.2-8.8,33.2c-0.3,1.1,2.1,3.9,3.7,4.4c9.1,2.9,18.3,5.3,28.1,8
	c-3.7,27.8-7.4,55.3-11.1,83c-1.5-0.3-2.4-0.3-3.1-0.7c-48-25.4-89.8-58-119.2-104.6C80.8,314.2,69.8,277.6,65.1,239
	c-8.6-70.5,2.4-138.5,25.5-205.1c2.5-7.2,5.5-14.3,7.1-21.7c1.5-6.9,5.6-6.7,10.6-5.6c15.9,3.4,31.9,6.4,47.7,10.3
	c62.5,15.5,120.5,40.6,171.3,80.8c27.6,21.8,50.4,47.7,66.7,77.5c-28.2,20.4-56,40.7-82.9,60.2c2.1-8.3,4.7-18.3,7.5-29.1
	c-12.2-3.3-24-6.5-36.3-9.9c-5.3,19.4-10.4,38.1-16,58.7c-21.1-36.4-41.5-71.6-62.1-107.2c-10.9,6.3-21.4,12.4-32.7,18.9
	c7.9,13.8,15.6,27.2,24,42c-20.2-5.3-39.2-10.3-58.8-15.5c-3.3,12.2-6.4,23.9-9.8,36.3c11.1,3.1,21.6,6.1,32.2,8.9
	c18.7,5,37.4,9.5,55.9,15c4.3,1.3,8.8,4.9,11.2,8.8c9,14.3,17.2,29.2,25.6,43.9c4.9,8.5,4.3,17.1-2.6,23.8c-1.6,1.6-5.2,2.1-7.6,1.6
	C232.2,329.5,222.8,326.8,212.2,324z"/>
</svg>
