<?xml version="1.0" encoding="utf-8"?>
<!-- Generator: Adobe Illustrator 22.0.1, SVG Export Plug-In . SVG Version: 6.00 Build 0)  -->
<svg version="1.1" id="圖層_1" xmlns="http://www.w3.org/2000/svg" xmlns:xlink="http://www.w3.org/1999/xlink" x="0px" y="0px"
	 viewBox="0 0 634.3 643.3" style="enable-background:new 0 0 634.3 643.3;" xml:space="preserve">
<style type="text/css">
	.st0{fill:#0D3082;}
	.st1{fill:#A0E3F2;}
	.st2{fill:#6EB748;}
	.st3{fill:#756759;}
	.st4{fill:#ECECEC;}
	.st5{fill:#707070;}
	.st6{fill:#FFFFFF;}
	.st7{fill:#F93716;}
	.st8{fill:none;stroke:#707070;stroke-miterlimit:10;}
</style>
<path class="st3" d="M238.8,411c-0.4,14.3-5.6,23.4-16.2,27.6c-9.3,3.7-19.5,1.5-26.6-5.7c-10.4-10.6-10.1-34.1,0.7-44.4
	c13.3-12.7,35.3-6.8,40.2,10.9C238,403.1,238.2,407.1,238.8,411z"/>
<path class="st3" d="M506.5,339.4c-0.2-14.9,16-30.5,31.8-30.8c11.9-0.2,23.5,11.7,23.7,24.5c0.3,14.1-16.5,30.5-31.3,30.6
	C517.2,363.7,506.7,353.2,506.5,339.4z"/>
<path class="st3" d="M251,175.2c18.1,0.2,32.3,12.7,32,28.3c-0.2,13.6-10.9,24-24.6,24c-16.9-0.1-31.3-13.3-31-28.5
	C227.7,185.6,238.2,175,251,175.2z"/>
<path class="st3" d="M491.8,27c14.6,0.1,24.9,10.2,24.9,24.4c0,15.3-13.7,26.9-31.4,26.6c-13.7-0.2-24.3-10.9-24.1-24.5
	C461.3,38.5,474.8,26.9,491.8,27z"/>
<path class="st3" d="M336.6,336.1c-0.1-14,10.5-24.6,24.6-24.5c15.4,0.1,25.5,12.2,25.6,30.7c0,13.7-11.2,24.9-24.7,24.8
	C347.1,366.9,336.7,354.4,336.6,336.1z"/>
<path class="st3" d="M156.8,599.4c-14.7,0-24.9-10-24.9-24.3c0-15.5,12.6-26.1,30.7-25.9c13.3,0.2,24.4,11.4,24.4,24.6
	C186.9,588.8,174.4,599.4,156.8,599.4z"/>
<path class="st3" d="M437.5,580.8c16.1,0,26.5,9.7,26.4,24.6c-0.1,14.4-10.5,24.2-25.9,24.3c-16,0.1-26.8-9.6-26.9-24.2
	C411,590.6,421.4,580.8,437.5,580.8z"/>
<path class="st3" d="M72.2,275.2c0.1-14.5,11.7-25.2,27.3-25.3c14-0.1,25,10.8,24.8,24.5c-0.2,14.3-13.2,26-28.4,25.6
	C82.5,299.8,72.1,288.8,72.2,275.2z"/>
<path class="st3" d="M132.8,9.7c15.4,0.2,27.4,11.4,27.3,25.6c-0.1,13.3-11.2,24.4-24.6,24.4C120,59.8,107.8,48.1,108,33.3
	C108.2,19.5,118.7,9.5,132.8,9.7z"/>
</svg>
